<mxfile host="app.diagrams.net" modified="2023-05-16T14:03:15.994Z" agent="Mozilla/5.0 (Windows NT 10.0; Win64; x64) AppleWebKit/537.36 (KHTML, like Gecko) Chrome/115.0.0.0 Safari/537.36 Edg/115.0.0.0" etag="8d5bWTIVQK9C5V6oa8uu" version="21.3.0" type="github">
  <diagram id="C5RBs43oDa-KdzZeNtuy" name="Page-1">
    <mxGraphModel dx="1422" dy="780" grid="1" gridSize="10" guides="1" tooltips="1" connect="1" arrows="1" fold="1" page="1" pageScale="1" pageWidth="827" pageHeight="1169" math="0" shadow="0">
      <root>
        <mxCell id="WIyWlLk6GJQsqaUBKTNV-0" />
        <mxCell id="WIyWlLk6GJQsqaUBKTNV-1" parent="WIyWlLk6GJQsqaUBKTNV-0" />
        <mxCell id="59706knupUUgMJdXaj_e-32" value="" style="rounded=0;whiteSpace=wrap;html=1;dashed=1;" parent="WIyWlLk6GJQsqaUBKTNV-1" vertex="1">
          <mxGeometry x="35" y="110" width="535" height="390" as="geometry" />
        </mxCell>
        <mxCell id="59706knupUUgMJdXaj_e-0" value="" style="whiteSpace=wrap;html=1;aspect=fixed;align=left;" parent="WIyWlLk6GJQsqaUBKTNV-1" vertex="1">
          <mxGeometry x="60" y="140" width="160" height="160" as="geometry" />
        </mxCell>
        <mxCell id="59706knupUUgMJdXaj_e-1" value="&lt;b&gt;&lt;font style=&quot;font-size: 14px;&quot;&gt;View（视图层）&lt;/font&gt;&lt;/b&gt;" style="text;html=1;align=center;verticalAlign=middle;resizable=0;points=[];autosize=1;" parent="WIyWlLk6GJQsqaUBKTNV-1" vertex="1">
          <mxGeometry x="85" y="140" width="130" height="30" as="geometry" />
        </mxCell>
        <mxCell id="59706knupUUgMJdXaj_e-2" value="" style="rounded=1;whiteSpace=wrap;html=1;" parent="WIyWlLk6GJQsqaUBKTNV-1" vertex="1">
          <mxGeometry x="70" y="170" width="120" height="60" as="geometry" />
        </mxCell>
        <mxCell id="59706knupUUgMJdXaj_e-3" value="" style="rounded=1;whiteSpace=wrap;html=1;" parent="WIyWlLk6GJQsqaUBKTNV-1" vertex="1">
          <mxGeometry x="85" y="200" width="120" height="90" as="geometry" />
        </mxCell>
        <mxCell id="59706knupUUgMJdXaj_e-4" value="&lt;font style=&quot;font-size: 13px;&quot;&gt;page&lt;/font&gt;" style="text;html=1;align=center;verticalAlign=middle;resizable=0;points=[];autosize=1;" parent="WIyWlLk6GJQsqaUBKTNV-1" vertex="1">
          <mxGeometry x="70" y="170" width="50" height="30" as="geometry" />
        </mxCell>
        <mxCell id="59706knupUUgMJdXaj_e-5" value="&lt;font style=&quot;font-size: 14px;&quot;&gt;page&lt;/font&gt;" style="text;html=1;align=center;verticalAlign=middle;resizable=0;points=[];autosize=1;" parent="WIyWlLk6GJQsqaUBKTNV-1" vertex="1">
          <mxGeometry x="85" y="200" width="50" height="30" as="geometry" />
        </mxCell>
        <mxCell id="59706knupUUgMJdXaj_e-6" value="WXML" style="whiteSpace=wrap;html=1;" parent="WIyWlLk6GJQsqaUBKTNV-1" vertex="1">
          <mxGeometry x="115" y="230" width="75" height="20" as="geometry" />
        </mxCell>
        <mxCell id="59706knupUUgMJdXaj_e-7" value="WXSS" style="whiteSpace=wrap;html=1;" parent="WIyWlLk6GJQsqaUBKTNV-1" vertex="1">
          <mxGeometry x="115" y="260" width="75" height="20" as="geometry" />
        </mxCell>
        <mxCell id="59706knupUUgMJdXaj_e-8" value="" style="whiteSpace=wrap;html=1;align=left;" parent="WIyWlLk6GJQsqaUBKTNV-1" vertex="1">
          <mxGeometry x="340" y="140" width="200" height="160" as="geometry" />
        </mxCell>
        <mxCell id="59706knupUUgMJdXaj_e-9" value="&lt;span style=&quot;font-size: 14px;&quot;&gt;&lt;b&gt;App Service(逻辑层)&lt;/b&gt;&lt;/span&gt;" style="text;html=1;align=center;verticalAlign=middle;resizable=0;points=[];autosize=1;" parent="WIyWlLk6GJQsqaUBKTNV-1" vertex="1">
          <mxGeometry x="360" y="140" width="160" height="30" as="geometry" />
        </mxCell>
        <mxCell id="59706knupUUgMJdXaj_e-10" value="&lt;font style=&quot;font-size: 14px;&quot;&gt;Manger&lt;/font&gt;" style="rounded=1;whiteSpace=wrap;html=1;" parent="WIyWlLk6GJQsqaUBKTNV-1" vertex="1">
          <mxGeometry x="360" y="185" width="70" height="85" as="geometry" />
        </mxCell>
        <mxCell id="59706knupUUgMJdXaj_e-11" value="&lt;font style=&quot;font-size: 14px;&quot;&gt;API&lt;/font&gt;" style="rounded=1;whiteSpace=wrap;html=1;" parent="WIyWlLk6GJQsqaUBKTNV-1" vertex="1">
          <mxGeometry x="445" y="185" width="65" height="85" as="geometry" />
        </mxCell>
        <mxCell id="59706knupUUgMJdXaj_e-16" value="" style="whiteSpace=wrap;html=1;align=left;" parent="WIyWlLk6GJQsqaUBKTNV-1" vertex="1">
          <mxGeometry x="60" y="370" width="480" height="110" as="geometry" />
        </mxCell>
        <mxCell id="59706knupUUgMJdXaj_e-17" value="" style="endArrow=classic;html=1;rounded=0;entryX=0.085;entryY=-0.042;entryDx=0;entryDy=0;entryPerimeter=0;strokeWidth=2;" parent="WIyWlLk6GJQsqaUBKTNV-1" target="59706knupUUgMJdXaj_e-16" edge="1">
          <mxGeometry width="50" height="50" relative="1" as="geometry">
            <mxPoint x="100" y="300" as="sourcePoint" />
            <mxPoint x="150" y="250" as="targetPoint" />
          </mxGeometry>
        </mxCell>
        <mxCell id="59706knupUUgMJdXaj_e-18" value="Event" style="text;html=1;align=center;verticalAlign=middle;resizable=0;points=[];autosize=1;" parent="WIyWlLk6GJQsqaUBKTNV-1" vertex="1">
          <mxGeometry x="50" y="320" width="50" height="30" as="geometry" />
        </mxCell>
        <mxCell id="59706knupUUgMJdXaj_e-19" value="" style="endArrow=classic;html=1;rounded=0;entryX=0.75;entryY=1;entryDx=0;entryDy=0;exitX=0.25;exitY=-0.042;exitDx=0;exitDy=0;exitPerimeter=0;jumpSize=19;strokeWidth=2;" parent="WIyWlLk6GJQsqaUBKTNV-1" source="59706knupUUgMJdXaj_e-16" target="59706knupUUgMJdXaj_e-0" edge="1">
          <mxGeometry width="50" height="50" relative="1" as="geometry">
            <mxPoint x="180" y="360" as="sourcePoint" />
            <mxPoint x="190" y="330" as="targetPoint" />
          </mxGeometry>
        </mxCell>
        <mxCell id="59706knupUUgMJdXaj_e-20" value="Data" style="text;html=1;align=center;verticalAlign=middle;resizable=0;points=[];autosize=1;" parent="WIyWlLk6GJQsqaUBKTNV-1" vertex="1">
          <mxGeometry x="180" y="318" width="50" height="30" as="geometry" />
        </mxCell>
        <mxCell id="59706knupUUgMJdXaj_e-21" value="" style="endArrow=classic;html=1;rounded=0;entryX=0.085;entryY=-0.042;entryDx=0;entryDy=0;entryPerimeter=0;strokeWidth=2;" parent="WIyWlLk6GJQsqaUBKTNV-1" edge="1">
          <mxGeometry width="50" height="50" relative="1" as="geometry">
            <mxPoint x="400" y="302.5" as="sourcePoint" />
            <mxPoint x="401" y="367.5" as="targetPoint" />
          </mxGeometry>
        </mxCell>
        <mxCell id="59706knupUUgMJdXaj_e-22" value="Event" style="text;html=1;align=center;verticalAlign=middle;resizable=0;points=[];autosize=1;" parent="WIyWlLk6GJQsqaUBKTNV-1" vertex="1">
          <mxGeometry x="480" y="320" width="50" height="30" as="geometry" />
        </mxCell>
        <mxCell id="59706knupUUgMJdXaj_e-23" value="" style="endArrow=classic;html=1;rounded=0;entryX=0.75;entryY=1;entryDx=0;entryDy=0;exitX=0.25;exitY=-0.042;exitDx=0;exitDy=0;exitPerimeter=0;strokeWidth=2;" parent="WIyWlLk6GJQsqaUBKTNV-1" edge="1">
          <mxGeometry width="50" height="50" relative="1" as="geometry">
            <mxPoint x="480" y="367.5" as="sourcePoint" />
            <mxPoint x="480" y="302.5" as="targetPoint" />
          </mxGeometry>
        </mxCell>
        <mxCell id="59706knupUUgMJdXaj_e-24" value="Data" style="text;html=1;align=center;verticalAlign=middle;resizable=0;points=[];autosize=1;" parent="WIyWlLk6GJQsqaUBKTNV-1" vertex="1">
          <mxGeometry x="350" y="320" width="50" height="30" as="geometry" />
        </mxCell>
        <mxCell id="59706knupUUgMJdXaj_e-25" value="&lt;font style=&quot;font-size: 14px;&quot;&gt;JSBridge&lt;/font&gt;" style="rounded=1;whiteSpace=wrap;html=1;" parent="WIyWlLk6GJQsqaUBKTNV-1" vertex="1">
          <mxGeometry x="85" y="380" width="445" height="30" as="geometry" />
        </mxCell>
        <mxCell id="59706knupUUgMJdXaj_e-26" value="&lt;font style=&quot;font-size: 13px;&quot;&gt;微信能力&lt;/font&gt;" style="rounded=1;whiteSpace=wrap;html=1;" parent="WIyWlLk6GJQsqaUBKTNV-1" vertex="1">
          <mxGeometry x="85" y="420" width="115" height="30" as="geometry" />
        </mxCell>
        <mxCell id="59706knupUUgMJdXaj_e-27" value="&lt;font style=&quot;font-size: 13px;&quot;&gt;离线存储&lt;/font&gt;" style="rounded=1;whiteSpace=wrap;html=1;" parent="WIyWlLk6GJQsqaUBKTNV-1" vertex="1">
          <mxGeometry x="205" y="420" width="125" height="30" as="geometry" />
        </mxCell>
        <mxCell id="59706knupUUgMJdXaj_e-28" value="&lt;font style=&quot;font-size: 13px;&quot;&gt;网络请求&lt;/font&gt;" style="rounded=1;whiteSpace=wrap;html=1;" parent="WIyWlLk6GJQsqaUBKTNV-1" vertex="1">
          <mxGeometry x="335" y="420" width="115" height="30" as="geometry" />
        </mxCell>
        <mxCell id="59706knupUUgMJdXaj_e-29" value="&lt;b&gt;&lt;font style=&quot;font-size: 13px;&quot;&gt;······&lt;/font&gt;&lt;/b&gt;" style="rounded=1;whiteSpace=wrap;html=1;" parent="WIyWlLk6GJQsqaUBKTNV-1" vertex="1">
          <mxGeometry x="460" y="420" width="70" height="30" as="geometry" />
        </mxCell>
        <mxCell id="59706knupUUgMJdXaj_e-30" value="&lt;b&gt;&lt;font style=&quot;font-size: 14px;&quot;&gt;Native (系统层)&lt;/font&gt;&lt;/b&gt;" style="text;html=1;align=center;verticalAlign=middle;resizable=0;points=[];autosize=1;" parent="WIyWlLk6GJQsqaUBKTNV-1" vertex="1">
          <mxGeometry x="247.5" y="450" width="120" height="30" as="geometry" />
        </mxCell>
        <mxCell id="59706knupUUgMJdXaj_e-33" value="微信客户端" style="text;html=1;align=center;verticalAlign=middle;resizable=0;points=[];autosize=1;" parent="WIyWlLk6GJQsqaUBKTNV-1" vertex="1">
          <mxGeometry x="35" y="110" width="80" height="30" as="geometry" />
        </mxCell>
        <mxCell id="59706knupUUgMJdXaj_e-35" value="&lt;b&gt;&lt;font style=&quot;font-size: 17px;&quot;&gt;服务器&lt;/font&gt;&lt;/b&gt;" style="whiteSpace=wrap;html=1;align=center;" parent="WIyWlLk6GJQsqaUBKTNV-1" vertex="1">
          <mxGeometry x="67.5" y="570" width="480" height="60" as="geometry" />
        </mxCell>
        <mxCell id="59706knupUUgMJdXaj_e-36" value="" style="endArrow=classic;html=1;rounded=0;strokeWidth=2;" parent="WIyWlLk6GJQsqaUBKTNV-1" edge="1">
          <mxGeometry width="50" height="50" relative="1" as="geometry">
            <mxPoint x="262.5" y="480" as="sourcePoint" />
            <mxPoint x="263" y="560" as="targetPoint" />
          </mxGeometry>
        </mxCell>
        <mxCell id="59706knupUUgMJdXaj_e-37" value="&lt;font style=&quot;font-size: 14px;&quot;&gt;HTTPS Rquest&lt;/font&gt;" style="text;html=1;align=center;verticalAlign=middle;resizable=0;points=[];autosize=1;" parent="WIyWlLk6GJQsqaUBKTNV-1" vertex="1">
          <mxGeometry x="137.5" y="510" width="120" height="30" as="geometry" />
        </mxCell>
        <mxCell id="59706knupUUgMJdXaj_e-38" value="" style="endArrow=classic;html=1;rounded=0;entryX=0.75;entryY=1;entryDx=0;entryDy=0;jumpSize=19;strokeWidth=2;" parent="WIyWlLk6GJQsqaUBKTNV-1" edge="1">
          <mxGeometry width="50" height="50" relative="1" as="geometry">
            <mxPoint x="343" y="560" as="sourcePoint" />
            <mxPoint x="342.5" y="480" as="targetPoint" />
          </mxGeometry>
        </mxCell>
        <mxCell id="59706knupUUgMJdXaj_e-39" value="&lt;font style=&quot;font-size: 14px;&quot;&gt;Web Socket&lt;/font&gt;" style="text;html=1;align=center;verticalAlign=middle;resizable=0;points=[];autosize=1;" parent="WIyWlLk6GJQsqaUBKTNV-1" vertex="1">
          <mxGeometry x="340" y="510" width="100" height="30" as="geometry" />
        </mxCell>
      </root>
    </mxGraphModel>
  </diagram>
</mxfile>
